# Tiled2Unity generated file. Do not modify by hand.
# Wavefront file for 'StartingLevel_mesh_0002.obj'

# Vertices (Count = 504)
v -464 -16 0
v -480 -16 0
v -480 0 0
v -464 0 0
v -448 -16 0
v -464 -16 0
v -464 0 0
v -448 0 0
v -432 -16 0
v -448 -16 0
v -448 0 0
v -432 0 0
v -416 -16 0
v -432 -16 0
v -432 0 0
v -416 0 0
v -400 -16 0
v -416 -16 0
v -416 0 0
v -400 0 0
v -384 -16 0
v -400 -16 0
v -400 0 0
v -384 0 0
v -368 -16 0
v -384 -16 0
v -384 0 0
v -368 0 0
v -352 -16 0
v -368 -16 0
v -368 0 0
v -352 0 0
v -336 -16 0
v -352 -16 0
v -352 0 0
v -336 0 0
v -320 -16 0
v -336 -16 0
v -336 0 0
v -320 0 0
v -304 -16 0
v -320 -16 0
v -320 0 0
v -304 0 0
v -288 -16 0
v -304 -16 0
v -304 0 0
v -288 0 0
v -272 -16 0
v -288 -16 0
v -288 0 0
v -272 0 0
v -224 -16 0
v -240 -16 0
v -240 0 0
v -224 0 0
v -208 -16 0
v -224 -16 0
v -224 0 0
v -208 0 0
v -192 -16 0
v -208 -16 0
v -208 0 0
v -192 0 0
v -176 -16 0
v -192 -16 0
v -192 0 0
v -176 0 0
v -160 -16 0
v -176 -16 0
v -176 0 0
v -160 0 0
v -144 -16 0
v -160 -16 0
v -160 0 0
v -144 0 0
v -128 -16 0
v -144 -16 0
v -144 0 0
v -128 0 0
v -112 -16 0
v -128 -16 0
v -128 0 0
v -112 0 0
v -96 -16 0
v -112 -16 0
v -112 0 0
v -96 0 0
v -80 -16 0
v -96 -16 0
v -96 0 0
v -80 0 0
v -64 -16 0
v -80 -16 0
v -80 0 0
v -64 0 0
v -48 -16 0
v -64 -16 0
v -64 0 0
v -48 0 0
v -32 -16 0
v -48 -16 0
v -48 0 0
v -32 0 0
v -16 -16 0
v -32 -16 0
v -32 0 0
v -16 0 0
v 0 -16 0
v -16 -16 0
v -16 0 0
v 0 0 0
v -464 -32 0
v -480 -32 0
v -480 -16 0
v -464 -16 0
v 0 -32 0
v -16 -32 0
v -16 -16 0
v 0 -16 0
v -464 -48 0
v -480 -48 0
v -480 -32 0
v -464 -32 0
v 0 -48 0
v -16 -48 0
v -16 -32 0
v 0 -32 0
v -464 -64 0
v -480 -64 0
v -480 -48 0
v -464 -48 0
v 0 -64 0
v -16 -64 0
v -16 -48 0
v 0 -48 0
v -464 -80 0
v -480 -80 0
v -480 -64 0
v -464 -64 0
v -288 -80 0
v -304 -80 0
v -304 -64 0
v -288 -64 0
v 0 -80 0
v -16 -80 0
v -16 -64 0
v 0 -64 0
v -464 -96 0
v -480 -96 0
v -480 -80 0
v -464 -80 0
v -288 -96 0
v -304 -96 0
v -304 -80 0
v -288 -80 0
v 0 -96 0
v -16 -96 0
v -16 -80 0
v 0 -80 0
v -464 -112 0
v -480 -112 0
v -480 -96 0
v -464 -96 0
v 0 -112 0
v -16 -112 0
v -16 -96 0
v 0 -96 0
v -464 -128 0
v -480 -128 0
v -480 -112 0
v -464 -112 0
v 0 -128 0
v -16 -128 0
v -16 -112 0
v 0 -112 0
v -464 -144 0
v -480 -144 0
v -480 -128 0
v -464 -128 0
v -144 -144 0
v -160 -144 0
v -160 -128 0
v -144 -128 0
v -128 -144 0
v -144 -144 0
v -144 -128 0
v -128 -128 0
v -112 -144 0
v -128 -144 0
v -128 -128 0
v -112 -128 0
v -96 -144 0
v -112 -144 0
v -112 -128 0
v -96 -128 0
v -80 -144 0
v -96 -144 0
v -96 -128 0
v -80 -128 0
v -64 -144 0
v -80 -144 0
v -80 -128 0
v -64 -128 0
v -48 -144 0
v -64 -144 0
v -64 -128 0
v -48 -128 0
v 0 -144 0
v -16 -144 0
v -16 -128 0
v 0 -128 0
v -464 -160 0
v -480 -160 0
v -480 -144 0
v -464 -144 0
v -272 -160 0
v -288 -160 0
v -288 -144 0
v -272 -144 0
v -144 -160 0
v -160 -160 0
v -160 -144 0
v -144 -144 0
v -128 -160 0
v -144 -160 0
v -144 -144 0
v -128 -144 0
v -112 -160 0
v -128 -160 0
v -128 -144 0
v -112 -144 0
v -96 -160 0
v -112 -160 0
v -112 -144 0
v -96 -144 0
v -80 -160 0
v -96 -160 0
v -96 -144 0
v -80 -144 0
v -64 -160 0
v -80 -160 0
v -80 -144 0
v -64 -144 0
v -48 -160 0
v -64 -160 0
v -64 -144 0
v -48 -144 0
v 0 -160 0
v -16 -160 0
v -16 -144 0
v 0 -144 0
v -464 -176 0
v -480 -176 0
v -480 -160 0
v -464 -160 0
v -272 -176 0
v -288 -176 0
v -288 -160 0
v -272 -160 0
v -144 -176 0
v -160 -176 0
v -160 -160 0
v -144 -160 0
v -128 -176 0
v -144 -176 0
v -144 -160 0
v -128 -160 0
v -112 -176 0
v -128 -176 0
v -128 -160 0
v -112 -160 0
v -96 -176 0
v -112 -176 0
v -112 -160 0
v -96 -160 0
v -80 -176 0
v -96 -176 0
v -96 -160 0
v -80 -160 0
v -64 -176 0
v -80 -176 0
v -80 -160 0
v -64 -160 0
v -48 -176 0
v -64 -176 0
v -64 -160 0
v -48 -160 0
v 0 -176 0
v -16 -176 0
v -16 -160 0
v 0 -160 0
v -464 -192 0
v -480 -192 0
v -480 -176 0
v -464 -176 0
v -288 -192 0
v -304 -192 0
v -304 -176 0
v -288 -176 0
v -272 -192 0
v -288 -192 0
v -288 -176 0
v -272 -176 0
v -112 -192 0
v -128 -192 0
v -128 -176 0
v -112 -176 0
v -96 -192 0
v -112 -192 0
v -112 -176 0
v -96 -176 0
v -80 -192 0
v -96 -192 0
v -96 -176 0
v -80 -176 0
v -64 -192 0
v -80 -192 0
v -80 -176 0
v -64 -176 0
v -48 -192 0
v -64 -192 0
v -64 -176 0
v -48 -176 0
v 0 -192 0
v -16 -192 0
v -16 -176 0
v 0 -176 0
v -464 -208 0
v -480 -208 0
v -480 -192 0
v -464 -192 0
v -288 -208 0
v -304 -208 0
v -304 -192 0
v -288 -192 0
v -112 -208 0
v -128 -208 0
v -128 -192 0
v -112 -192 0
v -96 -208 0
v -112 -208 0
v -112 -192 0
v -96 -192 0
v -80 -208 0
v -96 -208 0
v -96 -192 0
v -80 -192 0
v -64 -208 0
v -80 -208 0
v -80 -192 0
v -64 -192 0
v -48 -208 0
v -64 -208 0
v -64 -192 0
v -48 -192 0
v -32 -208 0
v -48 -208 0
v -48 -192 0
v -32 -192 0
v -16 -208 0
v -32 -208 0
v -32 -192 0
v -16 -192 0
v 0 -208 0
v -16 -208 0
v -16 -192 0
v 0 -192 0
v -464 -224 0
v -480 -224 0
v -480 -208 0
v -464 -208 0
v -288 -224 0
v -304 -224 0
v -304 -208 0
v -288 -208 0
v -160 -224 0
v -176 -224 0
v -176 -208 0
v -160 -208 0
v -144 -224 0
v -160 -224 0
v -160 -208 0
v -144 -208 0
v 0 -224 0
v -16 -224 0
v -16 -208 0
v 0 -208 0
v -464 -240 0
v -480 -240 0
v -480 -224 0
v -464 -224 0
v -448 -240 0
v -464 -240 0
v -464 -224 0
v -448 -224 0
v -432 -240 0
v -448 -240 0
v -448 -224 0
v -432 -224 0
v -416 -240 0
v -432 -240 0
v -432 -224 0
v -416 -224 0
v -384 -240 0
v -400 -240 0
v -400 -224 0
v -384 -224 0
v -368 -240 0
v -384 -240 0
v -384 -224 0
v -368 -224 0
v -352 -240 0
v -368 -240 0
v -368 -224 0
v -352 -224 0
v -160 -240 0
v -176 -240 0
v -176 -224 0
v -160 -224 0
v -144 -240 0
v -160 -240 0
v -160 -224 0
v -144 -224 0
v 0 -240 0
v -16 -240 0
v -16 -224 0
v 0 -224 0
v -464 -256 0
v -480 -256 0
v -480 -240 0
v -464 -240 0
v 0 -256 0
v -16 -256 0
v -16 -240 0
v 0 -240 0
v -464 -272 0
v -480 -272 0
v -480 -256 0
v -464 -256 0
v 0 -272 0
v -16 -272 0
v -16 -256 0
v 0 -256 0
v 0 -288 0
v -16 -288 0
v -16 -272 0
v 0 -272 0
v -464 -320 0
v -480 -320 0
v -480 -304 0
v -464 -304 0
v -272 -320 0
v -288 -320 0
v -288 -304 0
v -272 -304 0
v -256 -320 0
v -272 -320 0
v -272 -304 0
v -256 -304 0
v -464 -336 0
v -480 -336 0
v -480 -320 0
v -464 -320 0
v -272 -336 0
v -288 -336 0
v -288 -320 0
v -272 -320 0
v -256 -336 0
v -272 -336 0
v -272 -320 0
v -256 -320 0
v 0 -336 0
v -16 -336 0
v -16 -320 0
v 0 -320 0
v -464 -352 0
v -480 -352 0
v -480 -336 0
v -464 -336 0
v -32 -352 0
v -48 -352 0
v -48 -336 0
v -32 -336 0
v 0 -352 0
v -16 -352 0
v -16 -336 0
v 0 -336 0
v -464 -368 0
v -480 -368 0
v -480 -352 0
v -464 -352 0
v 0 -368 0
v -16 -368 0
v -16 -352 0
v 0 -352 0
v -464 -384 0
v -480 -384 0
v -480 -368 0
v -464 -368 0
v 0 -384 0
v -16 -384 0
v -16 -368 0
v 0 -368 0

# Texture cooridinates (Count = 114)
vt 0.075 0.4444444
vt 0.1 0.4444444
vt 0.1 0.4722222
vt 0.075 0.4722222
vt 0.125 0.4444444
vt 0.15 0.4444444
vt 0.15 0.4722222
vt 0.125 0.4722222
vt 0.125 0.5
vt 0.15 0.5
vt 0.15 0.5277778
vt 0.125 0.5277778
vt 0.175 0.5
vt 0.175 0.5277778
vt 0.2 0.5277778
vt 0.2 0.5555556
vt 0.175 0.5555556
vt 0.175 0.4722222
vt 0.2 0.4722222
vt 0.2 0.5
vt 0 0.5
vt 0.025 0.5
vt 0.025 0.5277778
vt 0 0.5277778
vt 0 0.4722222
vt 0.025 0.4722222
vt 0.35 0.8333333
vt 0.375 0.8333333
vt 0.375 0.8611111
vt 0.35 0.8611111
vt 0.325 0.8333333
vt 0.325 0.8611111
vt 0.375 0.9722222
vt 0.4 0.9722222
vt 0.4 1
vt 0.375 1
vt 0.35 0.9722222
vt 0.35 1
vt 0.325 0.9722222
vt 0.325 1
vt 0.3 0.9722222
vt 0.3 1
vt 0.275 0.9722222
vt 0.275 1
vt 0.35 0.8055556
vt 0.375 0.8055556
vt 0.325 0.8055556
vt 0.375 0.9444444
vt 0.4 0.9444444
vt 0.35 0.9444444
vt 0.325 0.9444444
vt 0.3 0.9444444
vt 0.275 0.9444444
vt 0.1 0.5
vt 0.35 0.7777778
vt 0.375 0.7777778
vt 0.325 0.7777778
vt 0.25 0.9166667
vt 0.275 0.9166667
vt 0.25 0.9444444
vt 0.225 0.9166667
vt 0.225 0.9444444
vt 0.2 0.9166667
vt 0.2 0.9444444
vt 0.175 0.9166667
vt 0.175 0.9444444
vt 0.15 0.9166667
vt 0.15 0.9444444
vt 0.075 0.5
vt 0.1 0.5277778
vt 0.075 0.5277778
vt 0.05 0.4722222
vt 0.05 0.5
vt 0.25 0.8888889
vt 0.275 0.8888889
vt 0.225 0.8888889
vt 0.2 0.8888889
vt 0.175 0.8888889
vt 0.15 0.8888889
vt 0.25 0.8611111
vt 0.275 0.8611111
vt 0.225 0.8611111
vt 0.2 0.8611111
vt 0.175 0.8611111
vt 0.15 0.8611111
vt 0.05 0.5277778
vt 0.05 0.5555556
vt 0.025 0.5555556
vt 0 0.5555556
vt 0.8 0.8888889
vt 0.825 0.8888889
vt 0.825 0.9166667
vt 0.8 0.9166667
vt 0.775 0.8888889
vt 0.775 0.9166667
vt 0 0.4444444
vt 0.025 0.4444444
vt 0.05 0.4444444
vt 0.8 0.8611111
vt 0.825 0.8611111
vt 0.775 0.8611111
vt 0.15 0.5555556
vt 0.125 0.5555556
vt 0.25 0.6666666
vt 0.275 0.6666666
vt 0.275 0.6944444
vt 0.25 0.6944444
vt 0.225 0.6666666
vt 0.225 0.6944444
vt 0.25 0.6388889
vt 0.275 0.6388889
vt 0.225 0.6388889
vt 0.2 0.8333333
vt 0.225 0.8333333

# Normal
vn 0 0 -1

# Mesh description
g StartingLevel_mesh_0002

# Faces
f 1/1/1 2/2/1 3/3/1 4/4/1
f 5/5/1 6/6/1 7/7/1 8/8/1
f 9/5/1 10/6/1 11/7/1 12/8/1
f 13/5/1 14/6/1 15/7/1 16/8/1
f 17/5/1 18/6/1 19/7/1 20/8/1
f 21/5/1 22/6/1 23/7/1 24/8/1
f 25/5/1 26/6/1 27/7/1 28/8/1
f 29/5/1 30/6/1 31/7/1 32/8/1
f 33/5/1 34/6/1 35/7/1 36/8/1
f 37/5/1 38/6/1 39/7/1 40/8/1
f 41/5/1 42/6/1 43/7/1 44/8/1
f 45/5/1 46/6/1 47/7/1 48/8/1
f 49/9/1 50/10/1 51/11/1 52/12/1
f 53/10/1 54/13/1 55/14/1 56/11/1
f 57/5/1 58/6/1 59/7/1 60/8/1
f 61/5/1 62/6/1 63/7/1 64/8/1
f 65/5/1 66/6/1 67/7/1 68/8/1
f 69/5/1 70/6/1 71/7/1 72/8/1
f 73/5/1 74/6/1 75/7/1 76/8/1
f 77/5/1 78/6/1 79/7/1 80/8/1
f 81/5/1 82/6/1 83/7/1 84/8/1
f 85/5/1 86/6/1 87/7/1 88/8/1
f 89/5/1 90/6/1 91/7/1 92/8/1
f 93/5/1 94/6/1 95/7/1 96/8/1
f 97/5/1 98/6/1 99/7/1 100/8/1
f 101/5/1 102/6/1 103/7/1 104/8/1
f 105/5/1 106/6/1 107/7/1 108/8/1
f 109/14/1 110/15/1 111/16/1 112/17/1
f 113/7/1 114/18/1 115/13/1 116/10/1
f 117/18/1 118/19/1 119/20/1 120/13/1
f 121/7/1 122/18/1 123/13/1 124/10/1
f 125/18/1 126/19/1 127/20/1 128/13/1
f 129/7/1 130/18/1 131/13/1 132/10/1
f 133/18/1 134/19/1 135/20/1 136/13/1
f 137/7/1 138/18/1 139/13/1 140/10/1
f 141/21/1 142/22/1 143/23/1 144/24/1
f 145/18/1 146/19/1 147/20/1 148/13/1
f 149/7/1 150/18/1 151/13/1 152/10/1
f 153/25/1 154/26/1 155/22/1 156/21/1
f 157/18/1 158/19/1 159/20/1 160/13/1
f 161/7/1 162/18/1 163/13/1 164/10/1
f 165/18/1 166/19/1 167/20/1 168/13/1
f 169/7/1 170/18/1 171/13/1 172/10/1
f 173/18/1 174/19/1 175/20/1 176/13/1
f 177/7/1 178/18/1 179/13/1 180/10/1
f 181/27/1 182/28/1 183/29/1 184/30/1
f 185/31/1 186/27/1 187/30/1 188/32/1
f 189/33/1 190/34/1 191/35/1 192/36/1
f 193/37/1 194/33/1 195/36/1 196/38/1
f 197/39/1 198/37/1 199/38/1 200/40/1
f 201/41/1 202/39/1 203/40/1 204/42/1
f 205/43/1 206/41/1 207/42/1 208/44/1
f 209/18/1 210/19/1 211/20/1 212/13/1
f 213/7/1 214/18/1 215/13/1 216/10/1
f 217/21/1 218/22/1 219/23/1 220/24/1
f 221/45/1 222/46/1 223/28/1 224/27/1
f 225/47/1 226/45/1 227/27/1 228/31/1
f 229/48/1 230/49/1 231/34/1 232/33/1
f 233/50/1 234/48/1 235/33/1 236/37/1
f 237/51/1 238/50/1 239/37/1 240/39/1
f 241/52/1 242/51/1 243/39/1 244/41/1
f 245/53/1 246/52/1 247/41/1 248/43/1
f 249/18/1 250/19/1 251/20/1 252/13/1
f 253/7/1 254/18/1 255/13/1 256/10/1
f 257/3/1 258/8/1 259/9/1 260/54/1
f 261/55/1 262/56/1 263/46/1 264/45/1
f 265/57/1 266/55/1 267/45/1 268/47/1
f 269/58/1 270/59/1 271/53/1 272/60/1
f 273/61/1 274/58/1 275/60/1 276/62/1
f 277/63/1 278/61/1 279/62/1 280/64/1
f 281/65/1 282/63/1 283/64/1 284/66/1
f 285/67/1 286/65/1 287/66/1 288/68/1
f 289/18/1 290/19/1 291/20/1 292/13/1
f 293/7/1 294/18/1 295/13/1 296/10/1
f 297/69/1 298/54/1 299/70/1 300/71/1
f 301/72/1 302/4/1 303/69/1 304/73/1
f 305/74/1 306/75/1 307/59/1 308/58/1
f 309/76/1 310/74/1 311/58/1 312/61/1
f 313/77/1 314/76/1 315/61/1 316/63/1
f 317/78/1 318/77/1 319/63/1 320/65/1
f 321/79/1 322/78/1 323/65/1 324/67/1
f 325/18/1 326/19/1 327/20/1 328/13/1
f 329/7/1 330/18/1 331/13/1 332/10/1
f 333/3/1 334/8/1 335/9/1 336/54/1
f 337/80/1 338/81/1 339/75/1 340/74/1
f 341/82/1 342/80/1 343/74/1 344/76/1
f 345/83/1 346/82/1 347/76/1 348/77/1
f 349/84/1 350/83/1 351/77/1 352/78/1
f 353/85/1 354/84/1 355/78/1 356/79/1
f 357/23/1 358/86/1 359/87/1 360/88/1
f 361/24/1 362/23/1 363/88/1 364/89/1
f 365/18/1 366/19/1 367/20/1 368/13/1
f 369/7/1 370/18/1 371/13/1 372/10/1
f 373/25/1 374/26/1 375/22/1 376/21/1
f 377/90/1 378/91/1 379/92/1 380/93/1
f 381/94/1 382/90/1 383/93/1 384/95/1
f 385/18/1 386/19/1 387/20/1 388/13/1
f 389/7/1 390/18/1 391/13/1 392/10/1
f 393/54/1 394/9/1 395/12/1 396/70/1
f 397/54/1 398/9/1 399/12/1 400/70/1
f 401/96/1 402/97/1 403/26/1 404/25/1
f 405/97/1 406/98/1 407/72/1 408/26/1
f 409/54/1 410/9/1 411/12/1 412/70/1
f 413/96/1 414/97/1 415/26/1 416/25/1
f 417/99/1 418/100/1 419/91/1 420/90/1
f 421/101/1 422/99/1 423/90/1 424/94/1
f 425/18/1 426/19/1 427/20/1 428/13/1
f 429/7/1 430/18/1 431/13/1 432/10/1
f 433/18/1 434/19/1 435/20/1 436/13/1
f 437/9/1 438/10/1 439/11/1 440/12/1
f 441/18/1 442/19/1 443/20/1 444/13/1
f 445/10/1 446/13/1 447/14/1 448/11/1
f 449/12/1 450/11/1 451/102/1 452/103/1
f 453/104/1 454/105/1 455/106/1 456/107/1
f 457/108/1 458/104/1 459/107/1 460/109/1
f 461/7/1 462/18/1 463/13/1 464/10/1
f 465/110/1 466/111/1 467/105/1 468/104/1
f 469/112/1 470/110/1 471/104/1 472/108/1
f 473/11/1 474/14/1 475/17/1 476/102/1
f 477/7/1 478/18/1 479/13/1 480/10/1
f 481/113/1 482/114/1 483/82/1 484/83/1
f 485/18/1 486/19/1 487/20/1 488/13/1
f 489/7/1 490/18/1 491/13/1 492/10/1
f 493/18/1 494/19/1 495/20/1 496/13/1
f 497/9/1 498/10/1 499/11/1 500/12/1
f 501/10/1 502/13/1 503/14/1 504/11/1

